<svg>

<svg id='eye' width="19" height="19" viewBox="0 0 19 19" fill="none" xmlns="http://www.w3.org/2000/svg">
<path d="M1.91593 10.0646C1.80812 9.8939 1.75421 9.80854 1.72403 9.67688C1.70136 9.57799 1.70136 9.42203 1.72403 9.32314C1.75421 9.19148 1.80812 9.10613 1.91593 8.93541C2.80688 7.52468 5.45886 3.95834 9.50032 3.95834C13.5418 3.95834 16.1938 7.52468 17.0847 8.93541C17.1925 9.10613 17.2464 9.19148 17.2766 9.32314C17.2993 9.42203 17.2993 9.57799 17.2766 9.67688C17.2464 9.80854 17.1925 9.8939 17.0847 10.0646C16.1938 11.4753 13.5418 15.0417 9.50032 15.0417C5.45886 15.0417 2.80688 11.4753 1.91593 10.0646Z" stroke="#A3A9B6" stroke-width="1.5" stroke-linecap="round" stroke-linejoin="round"/>
<path d="M9.50032 11.875C10.812 11.875 11.8753 10.8117 11.8753 9.50001C11.8753 8.18833 10.812 7.12501 9.50032 7.12501C8.18864 7.12501 7.12532 8.18833 7.12532 9.50001C7.12532 10.8117 8.18864 11.875 9.50032 11.875Z" stroke="#A3A9B6" stroke-width="1.5" stroke-linecap="round" stroke-linejoin="round"/>
</svg>

<svg id='eye-off' width="19" height="19" viewBox="0 0 19 19" fill="none" xmlns="http://www.w3.org/2000/svg">
<path d="M8.50483 4.03142C8.82657 3.98385 9.15848 3.95833 9.50033 3.95833C13.5418 3.95833 16.1938 7.52467 17.0847 8.9354C17.1926 9.10615 17.2465 9.19152 17.2766 9.3232C17.2993 9.42209 17.2993 9.57811 17.2766 9.677C17.2464 9.80867 17.1921 9.89461 17.0835 10.0665C16.8461 10.4422 16.4842 10.9702 16.0047 11.5429M5.32342 5.31607C3.61178 6.47718 2.44977 8.09034 1.91671 8.93418C1.80839 9.10565 1.75423 9.19138 1.72404 9.32305C1.70137 9.42194 1.70136 9.57793 1.72402 9.67683C1.7542 9.8085 1.80811 9.89386 1.91594 10.0646C2.80689 11.4753 5.45887 15.0417 9.50033 15.0417C11.1299 15.0417 12.5336 14.4618 13.687 13.6773M2.37533 2.375L16.6253 16.625M7.82095 7.82062C7.39116 8.25041 7.12533 8.84416 7.12533 9.5C7.12533 10.8117 8.18865 11.875 9.50033 11.875C10.1562 11.875 10.7499 11.6092 11.1797 11.1794" stroke="#A3A9B6" stroke-width="1.5" stroke-linecap="round" stroke-linejoin="round"/>
</svg>

<svg id='like' width="14" height="12" viewBox="0 0 14 12" fill="none" xmlns="http://www.w3.org/2000/svg">
<path d="M3.85 9.6021e-07C1.72375 9.6021e-07 0 1.72173 0 3.84548C0 7.69096 4.55 11.1869 7 12C9.45 11.1869 14 7.69096 14 3.84548C14 1.72173 12.2762 9.6021e-07 10.15 9.6021e-07C8.848 9.6021e-07 7.6965 0.645692 7 1.63398C6.64499 1.1289 6.17336 0.71669 5.62504 0.432263C5.07672 0.147837 4.46785 -0.000435366 3.85 9.6021e-07Z" fill="#512689"/>
</svg>

<svg id='like-off' width="14" height="12" viewBox="0 0 16 14" fill="none" xmlns="http://www.w3.org/2000/svg">
<path d="M4.85 1C2.72375 1 1 2.72173 1 4.84548C1 8.69096 5.55 12.1869 8 13C10.45 12.1869 15 8.69096 15 4.84548C15 2.72173 13.2762 1 11.15 1C9.848 1 8.6965 1.64569 8 2.63398C7.64499 2.1289 7.17336 1.71669 6.62504 1.43226C6.07672 1.14784 5.46785 0.999565 4.85 1Z" stroke="#151317" stroke-linecap="round" stroke-linejoin="round"/>
</svg>

<svg id='log-out' width="18" height="18" viewBox="0 0 18 18" fill="none" xmlns="http://www.w3.org/2000/svg">
<path d="M7.79 13.29C8.18 13.68 8.81 13.68 9.2 13.29L12.79 9.7C12.8827 9.60749 12.9563 9.4976 13.0064 9.37662C13.0566 9.25565 13.0824 9.12597 13.0824 8.995C13.0824 8.86403 13.0566 8.73435 13.0064 8.61338C12.9563 8.4924 12.8827 8.38251 12.79 8.29L9.2 4.7C9.01302 4.51302 8.75943 4.40798 8.495 4.40798C8.23057 4.40798 7.97698 4.51302 7.79 4.7C7.60302 4.88698 7.49798 5.14057 7.49798 5.405C7.49798 5.66943 7.60302 5.92302 7.79 6.11L9.67 8H1C0.45 8 0 8.45 0 9C0 9.55 0.45 10 1 10H9.67L7.79 11.88C7.4 12.27 7.41 12.91 7.79 13.29ZM16 0H2C1.46957 0 0.960859 0.210714 0.585786 0.585786C0.210714 0.960859 0 1.46957 0 2V5C0 5.55 0.45 6 1 6C1.55 6 2 5.55 2 5V3C2 2.45 2.45 2 3 2H15C15.55 2 16 2.45 16 3V15C16 15.55 15.55 16 15 16H3C2.45 16 2 15.55 2 15V13C2 12.45 1.55 12 1 12C0.45 12 0 12.45 0 13V16C0 17.1 0.9 18 2 18H16C17.1 18 18 17.1 18 16V2C18 0.9 17.1 0 16 0Z" fill="#F8F8F8"/>
</svg>

<svg  id='back' width="7" height="14" viewBox="0 0 7 14" fill="none" xmlns="http://www.w3.org/2000/svg">
<path d="M5.83749 14.0013C5.68809 14.0018 5.54048 13.9688 5.4055 13.9048C5.27052 13.8407 5.15161 13.7473 5.05749 13.6313L0.227488 7.63125C0.0804062 7.45232 0 7.22788 0 6.99625C0 6.76463 0.0804062 6.54018 0.227488 6.36125L5.22749 0.361252C5.39723 0.157036 5.64114 0.0286112 5.90556 0.0042315C6.16999 -0.0201482 6.43327 0.0615137 6.63749 0.231252C6.8417 0.400991 6.97013 0.644902 6.99451 0.909329C7.01889 1.17375 6.93723 1.43704 6.76749 1.64125L2.29749 7.00125L6.61749 12.3613C6.73977 12.508 6.81745 12.6868 6.84133 12.8763C6.86521 13.0659 6.83429 13.2583 6.75223 13.4308C6.67018 13.6034 6.54042 13.7488 6.37831 13.8499C6.2162 13.9509 6.02852 14.0035 5.83749 14.0013Z" fill="#F8F8F8"/>
</svg>